<?xml version="1.0" encoding="utf-8"?>
<!-- Generator: Adobe Illustrator 14.0.0, SVG Export Plug-In . SVG Version: 6.00 Build 43363)  -->
<!DOCTYPE svg PUBLIC "-//W3C//DTD SVG 1.0//EN" "http://www.w3.org/TR/2001/REC-SVG-20010904/DTD/svg10.dtd">
<svg version="1.0" id="Ebene_1" xmlns="http://www.w3.org/2000/svg" xmlns:xlink="http://www.w3.org/1999/xlink" x="0px" y="0px"
	 width="595.231px" height="793.65px" viewBox="0 0 595.231 793.65" enable-background="new 0 0 595.231 793.65"
	 xml:space="preserve">
<rect x="84.852" y="0.045" fill="#07264F" width="510.379" height="793.605"/>
<rect x="84.852" y="0.045" fill="#07264F" width="510.379" height="793.605"/>
<path fill="none" stroke="#FFFFFF" stroke-width="7.6015" stroke-miterlimit="3.864" d="M84.852,0.045"/>
<path fill-rule="evenodd" clip-rule="evenodd" fill="#FFFFFF" d="M182.452,81.517c13.828,0,31.864,21.582,24.883,41.502
	c12.347,3.267,15.051-20.394,33.464-23.983c3.176,3.265,6.196,1.391,6.196,8.653c0,7.279-2.768,25.37-6.033,31.867
	c-4.825-1.008-22.938,4.853-23.064,18.439c8.567,8.228,66.304,63.119,79.149,63.119c3.294,0,49.07-14.598,50.848-40.839
	c-1.173,2.61-6.447,5.513-9.503,8.663h-11.791c-3.063-6.438-3.203-15.805-3.006-20.862c0,0,2.437-2.216-4.151-2.216
	c-6.587,0-25.022,8.718-31.61,8.718c-13.836,0-22.39-16.355-22.39-26.17c0-11.995,9.431-20.339,26.026-16.935
	c0.317,3.848-4.957,6.759-4.957,14.028c0,7.272,4.88,9.15,6.938,11.686c9.869-2.918,20.402-5.823,29.99-7.714
	c-7.564-7.309-15.058-0.475-17.587-9.43l-4.887-23.249c25.43-9.531,31.287-32.953,57.784-38.36
	c31.534-6.43,58.607,19.446,79.713,21.356c2.956,2.375,8.75,6.444,8.75,13.724c0,7.262-13.16,29.076-13.16,36.348
	c0,7.269,10.533,33.446,10.533,40.715c0,53.077-44.793,92.335-44.793,145.409c0,31.629,58.825,78.631,69.83,106.146
	c1.447-5.001,3.941-8.717,3.941-15.992c0-41.805-44.787-43.984-44.787-98.877c0-66.165,50.053-92.335,50.053-145.407
	c0-7.278-10.534-30.543-10.534-37.806c0-7.279,13.175-34.901,13.175-42.173c0-7.27-5.274-7.27-4.887-11.202
	c3.566-0.433,0.933-3.34,7.521-3.34c21.076,0,36.885,63.978,36.885,69.795c0,34.536-54.771,135.082-59.821,149.924v12.965
	c14.18-31.938,44.083-57.934,55.397-92.992c8.694,4.816,20.226,28.979,20.226,36.259c0,38.532-55.32,54.528-55.502,75.979
	c0,0-4.671,19.625,3.975,27.27c8.259-15.687,21.786-41.549,39.996-55.226c3.498,6.581,3.631,10.134,3.631,17.41
	c0,32.35-28.984,49.436-28.984,63.977c0,7.269,10.543,52.351,10.543,59.619c0,23.633-17.741,40.313-45.615,33.346
	c-4.664,8.174-7.15,16.546-9.748,24.488c2.282,2.212-1.286,7.606,5.302,7.606s17.129-8.736,23.717-8.736
	c19.427,0,21.076,103.61,21.076,104.706c0,7.269-2.634,4.362-3.02,11.202c-3.568,0.422-3.568,3.328-10.154,3.328
	c-6.589,0-9.813-5.969-14.792-8.777h-9.811c-2.128,2.541-1.742-1.391-1.742,5.871c0,10.548,34.244,18.905,34.244,37.819
	c0,7.261-2.627,13.084-2.822,19.656c0,0,0.195,3.609-6.391,3.609c-6.589,0-27.082-23.52-42.026-34.91
	c-1.833,2.493-4.081,0.007-4.081,7.275s10.534,13.449,10.325,20.725c0,0-1.202,9.594-4.426,14.595
	c-5.99,9.299-17.304,7.704-25.374,12.669c-9.691,5.971-14.2,8.99-14.2,8.99c0.21-6.813-0.141-12.642-1.497-16.448
	c-0.905-2.557-2.97-3.02-2.963-6.715c0.034-15.92,11.798-28.176,13.597-38.5c-33.654,13.695-44.21,40.004-67.352,28.78l-18.59,3.301
	v-10.309c-0.177-19.638,41.865-34.441,44.617-34.625c-4.544-1.516-11.861-10.092-18.449-10.092c-4.755,0-9.854,17.403-24.757,7.676
	c-3.553,1.672-5.744,5.823-8.975,6.561c-0.513-4.061-3.146-2.606-3.146-9.875c0-23.267,22.719-36.352,34.251-36.352
	c6.588,0,20.346,11.785,30.017,17.487c11.771-16.587,46.389-15.31,46.389-36.393c0-51.255-79.038-26.168-79.038-88.702
	c0-11.629-1.089-19.368,10.541-27.755c-4.889-4.656-6.595-4.227-13.182-4.227c-18.773,0-21.133,14.959-26.38,33.091
	c7.228,7.685,29.021,23.612,29.021,35.242c0,12.726-15.81,18.907-21.085,18.907c-6.586,0-26.335-5.816-32.923-5.816
	c-6.587,0-18.443,5.816-25.031,5.816c-10.534,0-17.564-6.819-25.514-20.452c-13.716,3.693-25.775,25.282-38.641,34.709h-9.292
	c-0.315-6.981-2.956-11.351-2.956-18.619s7.979-20.809,10.542-28.97c0,0,0.379-1.994-1.32-4.48
	c-12.242,14.13-32.531,34.174-45.524,34.652c-3.146-9.468-0.583-23.016-0.583-30.285c0-7.275,16.398-15.744,23.717-20.479
	c-12.101-11.91-41.492-2.253-37.567-27.993c-8.224,0.506-9.754,1.778-15.049-13.104c5.919-3.7,9.143-3.848,15.731-3.848
	c27.987,0,12.564,9.508,52.947,23.849c-5.311-7.051-10.577-18.688-15.908-27.796v-10.001c0,0-0.161-3.512,6.427-3.512
	c18.442,0,33.141,39.623,43.43,49.617c9.601,2.781,23.114,8.759,35.444,17.284c1.869-2.486,1.477-1.461,1.477-8.736
	c0-16.357-11.688-19.216-23.515-29.904v-13.112c37.785-19.377,39.983-35.501,68.307-35.501c6.588,0,28.156,8.827,40.775,14.545
	c0,0,1.763,0.429,4.011-1.384c-12.678-10.57-29.841-24.428-43.677-37.876c-6.587-6.183-9.994-16.995-19.552-24.703
	c-29.237-23.62-32.579,11.556-52.265,17.287c-2.951-6.549-0.429-17.307-0.429-24.58c0-21.083-18.436-15.992-23.71-15.992
	c-30.95,0-40.179,26.167-63.229,26.167c-6.588,0-15.682-3.975-18.252-9.414l-5.633-11.002c10.878-9.153,29.981-14.376,42.356-19.137
	c-14.131-14.672-44.815,10.839-44.815-21.515c0-4.397-6.523-5.633-5.035-14.581c1.531,0,13.042-2.236,16.435-2.236
	c6.586,0,26.877,4.474,28.121-0.64c2.843-11.659-23.837-2.497-39.512-30.694c5.645-6.679,15.801-12.93,22.388-12.93
	c13.499,0,16.421,5.53,28.774,20.382c0,0,1.518,2.89,1.518-4.379c0-7.272-12.789-13.513-21.069-23.264
	c3.02-3.942,2.634-7.279,9.222-7.279c56.97,0,17.451,75.622,64.541,75.622c6.588,0,9.229-2.909,11.16-2.691
	c0,0-1.608,1.717,2.017-4.582c12.072-20.992-1.722-34.505-31.022-70.846c-7.065-8.771-33.141-3.255-37.447-19.668
	c2.985-3.574,8.598-9.667,13.204-11.734c-2.557-4.706-4.944-10.141-9.495-15.556c-9.741,5.681-23.506,14.562-30.087,14.562
	c-6.586,0-12.444-3.063-18.252-6.514c0.141-21.862,24.911-19.871,34.133-24.496c-6.863-14.893-21.316-22.748-36.662-36.707v-10.63
	h29.672c6.588-0.171,14.096,11.609,18.352,14.443c0,0,1.735,2.832,1.735-4.438c0-7.272-13.106-19.9-15.563-28.854V84.776
	C174.552,84.424,175.863,81.517,182.452,81.517 M330.553,120.224c0.233,4.186,0.964,9.601,5.612,9.176
	c12.199-1.124,26.345-9.622,26.345-9.622s-9.819-12.27-18.029-11.218C337.45,109.451,330.167,113.155,330.553,120.224"/>
<g>
	<path fill-rule="evenodd" clip-rule="evenodd" fill="#07264F" d="M7.571,793.026h29.912c2.76,0,4.951,0.118,6.426,0.343v-20.044
		h-5.646c0.253,0.857,0.315,2.282,0.315,5.254v8.111H7.571c-2.626,0-5.071-0.118-6.482-0.343v7.021
		C2.57,793.145,4.747,793.026,7.571,793.026"/>
	<path fill-rule="evenodd" clip-rule="evenodd" fill="#07264F" d="M7.571,768.445h29.912c2.76,0,4.951,0.118,6.426,0.345v-21.702
		h-5.646c0.183,0.857,0.315,2.396,0.315,4.678v10.345H24.005v-8.736c0-1.778,0.063-3.378,0.26-4.349h-5.59v0.352
		c0.069,0.506,0.133,0.969,0.133,1.25v1.139l0.063,1.32v9.024H6.223v-9.433c0-1.826,0.126-3.877,0.26-4.732H1.089v20.845
		C2.634,768.563,4.811,768.445,7.571,768.445"/>
	<path fill-rule="evenodd" clip-rule="evenodd" fill="#07264F" d="M7.571,739.812h29.912c2.76,0,4.951,0.12,6.426,0.352v-7.023
		c-1.349,0.225-3.849,0.338-6.426,0.338H7.571c-2.626,0-5.071-0.113-6.482-0.338v7.023C2.57,739.932,4.747,739.812,7.571,739.812"/>
	<path fill-rule="evenodd" clip-rule="evenodd" fill="#07264F" d="M7.507,723.336h29.982c2.76,0,4.944,0.111,6.426,0.336v-7.021
		c-1.355,0.225-3.855,0.336-6.426,0.336H24.967v-2.738c0-4.453-0.576-6.967-2.177-9.361c-1.925-2.915-5.653-4.573-10.149-4.573
		c-4.354,0-7.831,1.49-9.754,4.229c-1.349,1.938-1.791,3.884-1.791,8.111v11.019C2.57,723.447,4.747,723.336,7.507,723.336
		 M6.166,716.986c-0.07-0.912-0.07-1.313-0.07-1.994c0-6.391,1.672-8.568,6.679-8.568c4.881,0,7.122,2.57,7.122,8.056v2.507H6.166z"
		/>
	<path fill-rule="evenodd" clip-rule="evenodd" fill="#07264F" d="M6.552,697.562c-0.133-0.914-0.196-1.264-0.196-2.346
		l-0.063-1.826l-0.063-1.545v-10.956l32.741,17.467h4.944V673.57h-5.646c0.183,1.264,0.316,2.922,0.316,5.941v11.596l-32.608-17.48
		H1.096v23.935"/>
	<path fill-rule="evenodd" clip-rule="evenodd" fill="#07264F" d="M7.571,667.095h29.912c2.76,0,4.951,0.113,6.426,0.338v-7.023
		c-1.349,0.225-3.849,0.338-6.426,0.338H7.571c-2.626,0-5.071-0.113-6.482-0.338v7.023C2.57,667.208,4.747,667.095,7.571,667.095"/>
	<path fill-rule="evenodd" clip-rule="evenodd" fill="#07264F" d="M0,635.127c0,11.713,7.894,18.104,22.403,18.104
		c13.744,0,22.404-5.886,22.404-15.253c0-4.51-2.507-10.677-5.907-14.561H28.823c-2.5,0-5-0.111-6.419-0.343v6.797
		c1.538-0.28,3.336-0.393,6.419-0.393h7.767c1.672,2.388,2.634,5.183,2.634,7.648c0,5.821-6.805,9.594-17.333,9.594
		c-10.654,0-16.757-4.115-16.757-11.188c0-3.146,0.772-6.573,2.184-9.368l-5.716-1.32C0.576,627.821,0,631.475,0,635.127"/>
	<path fill-rule="evenodd" clip-rule="evenodd" fill="#07264F" d="M7.571,598.676h29.912c2.76,0,4.951,0.113,6.426,0.338v-7.023
		c-1.349,0.232-3.849,0.352-6.426,0.352H7.571c-2.626,0-5.071-0.119-6.482-0.352v7.023C2.57,598.789,4.747,598.676,7.571,598.676"/>
	<path fill-rule="evenodd" clip-rule="evenodd" fill="#07264F" d="M7.571,582.425h29.912c2.76,0,4.951,0.1,6.426,0.338v-6.062
		c-1.995,0.288-3.982,0.401-6.426,0.401H9.818l34.09-15.872v-6.8H7.571c-2.697,0-5.071-0.168-6.482-0.393v6.11
		c1.987-0.288,4.241-0.463,6.482-0.463h27.024L1.089,575.163v7.6C2.57,582.524,4.747,582.425,7.571,582.425"/>
	<path fill-rule="evenodd" clip-rule="evenodd" fill="#07264F" d="M37.489,539.374c2.76,0,5.07,0.12,6.426,0.352v-7.024
		c-1.419,0.225-3.729,0.338-6.426,0.338H6.229v-5.703c0-1.656,0.063-3.314,0.189-4.467l0.07-0.504H1.096v27.753h5.394
		c-0.197-0.969-0.26-2.457-0.26-4.907v-5.837"/>
	<path fill-rule="evenodd" clip-rule="evenodd" fill="#07264F" d="M7.571,517.876h29.912c2.76,0,4.951,0.12,6.426,0.345V496.52
		h-5.646c0.183,0.856,0.315,2.388,0.315,4.677v10.338H24.005v-8.736c0-1.77,0.063-3.371,0.26-4.34h-5.59v0.352
		c0.069,0.506,0.133,0.969,0.133,1.25v1.137l0.063,1.32v9.018H6.223v-9.424c0-1.826,0.126-3.877,0.26-4.734H1.089v20.845
		C2.634,517.996,4.811,517.876,7.571,517.876"/>
	<path fill-rule="evenodd" clip-rule="evenodd" fill="#07264F" d="M7.507,489.244h29.982c2.76,0,4.944,0.118,6.426,0.35v-6.967
		c-1.615,0.227-3.926,0.338-6.426,0.338H24.265v-2.457c0-4.341,1.159-5.366,7.705-7.138l6.931-1.824
		c2.563-0.689,4.045-1.025,5.015-1.082v-7.023c-1.159,0.506-1.615,0.619-2.641,0.969l-1.924,0.506l-1.798,0.52l-7.698,2.171
		c-5.394,1.538-7.388,3.083-8.161,6.565c-1.602-5.141-5.063-7.822-10.071-7.822c-3.729,0-7.002,1.656-8.667,4.34
		c-1.285,2.107-1.861,4.564-1.861,8.456v10.449C2.57,489.362,4.747,489.244,7.507,489.244 M6.096,482.965v-2.402
		c0-5.822,1.672-7.991,6.167-7.991c4.495,0,6.932,2.57,6.932,7.311v3.083H6.096z"/>
	<path fill-rule="evenodd" clip-rule="evenodd" fill="#07264F" d="M7.571,457.822h29.912c2.76,0,4.951,0.112,6.426,0.337v-6.054
		c-1.995,0.295-3.982,0.399-6.426,0.399H9.818l34.09-15.872v-6.797H7.571c-2.697,0-5.071-0.177-6.482-0.401v6.109
		c1.987-0.286,4.241-0.463,6.482-0.463h27.024L1.089,450.574v7.585C2.57,457.935,4.747,457.822,7.571,457.822"/>
	<path fill-rule="evenodd" clip-rule="evenodd" fill="#07264F" d="M9.179,413.016l26.891,9.305c3.919,1.37,5.653,2.058,7.838,3.14
		v-7.079l-0.576-0.17c-1.349-0.238-3.532-0.855-5.007-1.312l-6.096-1.946v-0.688l-0.197-3.244c0-0.746-0.063-1.833-0.063-3.146
		c0-1.545,0.063-2.74,0.063-3.596l0.197-3.147v-0.563l5.513-1.663l1.924-0.513l1.932-0.52c0.702-0.163,1.158-0.221,2.311-0.395
		v-7.768L43.332,390c-2.57,1.195-4.368,1.886-8.027,3.08L1.089,404.504v6.166C3.469,411.189,5.268,411.695,9.179,413.016
		 M26.835,402.678c0,0.281,0,1.137-0.07,2.457v5.086c0.07,1.361,0.07,2.162,0.07,2.387c0,0.177,0.063,0.408,0.063,0.744
		L8.47,407.587l18.428-5.542C26.898,402.34,26.835,402.509,26.835,402.678"/>
	<path fill-rule="evenodd" clip-rule="evenodd" fill="#07264F" d="M37.489,380.083c2.76,0,5.07,0.117,6.426,0.345v-7.024
		c-1.419,0.23-3.729,0.338-6.426,0.338H6.229v-5.71c0-1.653,0.063-3.308,0.189-4.452l0.07-0.509H1.096v27.752h5.394
		c-0.197-0.974-0.26-2.462-0.26-4.913v-5.827"/>
	<path fill-rule="evenodd" clip-rule="evenodd" fill="#07264F" d="M7.571,358.577h29.912c2.76,0,4.951,0.112,6.426,0.343v-7.025
		c-1.349,0.231-3.849,0.343-6.426,0.343H7.571c-2.626,0-5.071-0.111-6.482-0.343v7.025C2.57,358.688,4.747,358.577,7.571,358.577"/>
	<path fill-rule="evenodd" clip-rule="evenodd" fill="#07264F" d="M44.807,329.528c0-10.054-8.982-16.619-22.797-16.619
		c-13.722,0-22.01,5.71-22.01,15.188c0,10.112,8.99,16.62,23.05,16.62C36.787,344.716,44.807,339.123,44.807,329.528 M5.33,328.5
		c0-5.71,6.096-9.025,16.624-9.025c10.78,0,17.466,3.653,17.466,9.594c0,5.765-6.103,9.14-16.757,9.14
		C11.875,338.209,5.33,334.553,5.33,328.5"/>
	<path fill-rule="evenodd" clip-rule="evenodd" fill="#07264F" d="M7.571,305.607h29.912c2.76,0,4.951,0.117,6.426,0.345v-6.053
		c-1.995,0.288-3.982,0.396-6.426,0.396H9.818l34.09-15.872v-6.799H7.571c-2.697,0-5.071-0.171-6.482-0.399v6.11
		c1.987-0.285,4.241-0.459,6.482-0.459h27.024L1.089,298.354v7.598C2.57,305.724,4.747,305.607,7.571,305.607"/>
	<path fill-rule="evenodd" clip-rule="evenodd" fill="#07264F" d="M9.179,260.804l26.891,9.313c3.919,1.367,5.653,2.051,7.838,3.136
		v-7.075l-0.576-0.173c-1.349-0.231-3.532-0.855-5.007-1.317l-6.096-1.941v-0.684l-0.197-3.256c0-0.741-0.063-1.826-0.063-3.136
		c0-1.548,0.063-2.749,0.063-3.603l0.197-3.142v-0.569l5.513-1.655l1.924-0.52l1.932-0.509c0.702-0.171,1.158-0.228,2.311-0.403
		v-7.758l-0.576,0.278c-2.57,1.2-4.368,1.886-8.027,3.086l-34.216,11.42v6.17C3.469,258.979,5.268,259.496,9.179,260.804
		 M26.835,250.471c0,0.288,0,1.144-0.07,2.45v5.084c0.07,1.377,0.07,2.174,0.07,2.402c0,0.168,0.063,0.396,0.063,0.741L8.47,255.384
		l18.428-5.539C26.898,250.126,26.835,250.297,26.835,250.471"/>
	<path fill-rule="evenodd" clip-rule="evenodd" fill="#07264F" d="M7.571,232.958h29.912c2.76,0,4.951,0.116,6.426,0.348v-20.051
		h-5.646c0.253,0.854,0.315,2.286,0.315,5.258v8.104H7.571c-2.626,0-5.071-0.11-6.482-0.338v7.027
		C2.57,233.074,4.747,232.958,7.571,232.958"/>
	<path fill-rule="evenodd" clip-rule="evenodd" fill="#07264F" d="M44.807,184.942c0-8.112-5.205-13.478-13.161-13.478
		c-1.868,0-3.596,0.338-5.07,1.029c-2.831,1.25-4.945,3.421-7.832,8.217c-3.595,5.941-5.007,7.202-7.901,7.202
		c-3.336,0-5.773-2.684-5.773-6.511c0-1.892,0.442-3.486,1.735-6.17l-5.394-1.2C0.449,176.715,0,179.404,0,181.911
		c0,7.309,4.811,12.276,11.875,12.276c1.925,0,3.856-0.393,5.394-1.257c2.374-1.25,4.235-3.308,6.995-7.933
		c3.399-5.653,5.267-7.253,8.533-7.253c4.109,0,6.743,3.027,6.743,7.823c0,2.739-0.64,4.853-2.311,7.939l5.646,1.257
		C44.231,191.333,44.807,188.134,44.807,184.942"/>
	<path fill-rule="evenodd" clip-rule="evenodd" fill="#07264F" d="M0,149.328c0,11.419,8.028,17.82,22.467,17.82
		c13.61,0,22.34-5.825,22.34-14.91c0-4.968-2.122-9.534-7.058-15.243l-4.298,2.682c1.405,1.374,1.854,1.943,3.077,3.824
		c1.924,2.972,2.696,5.141,2.696,7.48c0,5.825-6.869,9.651-17.333,9.651c-10.527,0-16.757-3.998-16.757-10.844
		c0-3.027,0.772-6.17,2.121-8.737l-5.583-1.26C0.456,143.501,0,146.014,0,149.328"/>
	<path fill-rule="evenodd" clip-rule="evenodd" fill="#07264F" d="M7.571,131.858h29.912c2.76,0,4.951,0.115,6.426,0.339v-7.019
		c-1.349,0.228-3.849,0.345-6.426,0.345H24.067v-0.516c-0.126-2.114-0.189-4.57-0.189-6.799c0-2.912,0.127-7.027,0.189-8.565h13.415
		c2.76,0,5.077,0.116,6.426,0.345v-7.024c-1.412,0.221-3.729,0.338-6.426,0.338H7.571c-2.697,0-5.071-0.117-6.482-0.338v7.024
		c1.348-0.229,3.658-0.345,6.482-0.345h11.173v0.454c0,0.808-0.069,2.058-0.069,3.834c-0.063,1.709-0.063,2.963-0.063,3.767
		c0,0.509,0,1.71,0.063,3.653c0,1.77,0.069,3.026,0.069,3.767v0.405H7.571c-2.626,0-5.071-0.117-6.482-0.345v7.019
		C2.57,131.973,4.747,131.858,7.571,131.858"/>
	<path fill-rule="evenodd" clip-rule="evenodd" fill="#07264F" d="M44.807,80.568c0-10.054-8.982-16.62-22.797-16.62
		C8.288,63.948,0,69.658,0,79.146c0,10.103,8.99,16.61,23.05,16.61C36.787,95.756,44.807,90.162,44.807,80.568 M5.33,79.54
		c0-5.709,6.096-9.025,16.624-9.025c10.78,0,17.466,3.66,17.466,9.601c0,5.77-6.103,9.133-16.757,9.133
		C11.875,89.249,5.33,85.597,5.33,79.54"/>
	<path fill-rule="evenodd" clip-rule="evenodd" fill="#07264F" d="M44.807,43.855c0-10.046-8.982-16.62-22.797-16.62
		C8.288,27.236,0,32.945,0,42.434c0,10.103,8.99,16.609,23.05,16.609C36.787,59.043,44.807,53.449,44.807,43.855 M5.33,42.826
		c0-5.709,6.096-9.017,16.624-9.017c10.78,0,17.466,3.651,17.466,9.593c0,5.766-6.103,9.134-16.757,9.134
		C11.875,52.536,5.33,48.884,5.33,42.826"/>
	<path fill-rule="evenodd" clip-rule="evenodd" fill="#07264F" d="M7.571,19.707h29.912c2.76,0,4.951,0.116,6.426,0.344V0h-5.646
		c0.253,0.864,0.315,2.289,0.315,5.257v8.115H7.571c-2.626,0-5.071-0.116-6.482-0.348v7.026C2.57,19.823,4.747,19.707,7.571,19.707"
		/>
</g>
</svg>
